<svg style="position: absolute; width: 100%; height: 0; overflow: hidden;" version="1.1" xmlns="http://www.w3.org/2000/svg" xmlns:xlink="http://www.w3.org/1999/xlink">
<defs>
<symbol id="icon-logo" viewBox="0 0 29 32">
<title>logo</title>
<path fill="#2b3d4e" style="fill: var(--color1, #2b3d4e)" d="M14.667 31.318c-0.848 0-1.697-0.227-2.439-0.651l-9.091-5.227c-1.515-0.864-2.455-2.5-2.455-4.242v-10.409c0-1.742 0.939-3.364 2.455-4.242l9.091-5.227c0.742-0.409 1.576-0.636 2.439-0.636 0.848 0 1.697 0.227 2.439 0.651l9.091 5.227c1.515 0.864 2.455 2.5 2.455 4.242v10.409c0 1.742-0.939 3.364-2.455 4.242l-9.091 5.227c-0.758 0.409-1.591 0.636-2.439 0.636z"></path>
<path fill="#33475c" style="fill: var(--color2, #33475c)" d="M14.667 1.364c0.727 0 1.455 0.197 2.091 0.561l9.091 5.227c1.303 0.742 2.106 2.152 2.106 3.652v10.409c0 1.5-0.803 2.894-2.106 3.651l-9.091 5.227c-0.636 0.364-1.364 0.561-2.091 0.561s-1.455-0.197-2.091-0.561l-9.091-5.227c-1.318-0.758-2.121-2.151-2.121-3.651v-10.424c0-1.5 0.803-2.894 2.106-3.652l9.091-5.227c0.636-0.349 1.364-0.545 2.106-0.545zM14.667 0c-0.955 0-1.909 0.242-2.773 0.742l-9.091 5.227c-1.742 0.985-2.803 2.833-2.803 4.818v10.424c0 2 1.061 3.833 2.788 4.833l9.091 5.227c0.864 0.5 1.818 0.742 2.773 0.742s1.909-0.242 2.773-0.742l9.091-5.227c1.727-1 2.788-2.833 2.788-4.833v-10.424c0-2-1.061-3.833-2.788-4.833l-9.091-5.227c-0.849-0.485-1.803-0.727-2.758-0.727v0z"></path>
<path fill="#fff" opacity="0.95" style="fill: var(--color3, #fff)" d="M16.091 23.849h-2.909l-3.455-10.136h2.924l1.985 6.121 1.985-6.121h2.727l1.985 6.121 1.985-6.121h2.939l-3.455 10.136h-2.955l-1.864-5.515-1.894 5.515z"></path>
<path fill="#fff" style="fill: var(--color3, #fff)" d="M3.015 9.318h12.197v2.803h-4.455v11.803h-3.303v-11.803h-4.439v-2.803z"></path>
</symbol>
<symbol id="icon-android" viewBox="0 0 32 32">
<title>android</title>
<path fill="#fff" style="fill: var(--color3, #fff)" d="M20.13 3.276l0.334-0.5 0.328-0.493 0.738-1.107c0.031-0.046 0.049-0.103 0.049-0.164 0-0.102-0.051-0.192-0.129-0.245l-0.001-0.001c-0.046-0.031-0.103-0.050-0.165-0.050-0.103 0-0.193 0.052-0.246 0.131l-0.001 0.001-1.46 2.191c-1.069-0.415-2.261-0.647-3.52-0.647s-2.45 0.232-3.519 0.647l-0.336-0.505-1.124-1.686c-0.054-0.080-0.144-0.132-0.247-0.132-0.061 0-0.118 0.018-0.165 0.050l0.001-0.001c-0.080 0.054-0.132 0.144-0.132 0.246 0 0.061 0.018 0.118 0.050 0.165l-0.001-0.001 1.4 2.1c-2.511 1.169-4.209 3.385-4.209 5.92h16.564c0-2.535-1.698-4.751-4.209-5.92zM12.508 6.83c-0.491 0-0.888-0.398-0.888-0.887s0.397-0.887 0.888-0.887c0 0 0 0 0.001 0 0.489 0 0.886 0.397 0.886 0.886 0 0 0 0 0 0.001v-0c0 0.49-0.397 0.887-0.887 0.887zM19.606 6.83c-0.49 0-0.887-0.398-0.887-0.887 0-0 0-0 0-0 0-0.489 0.397-0.886 0.886-0.886 0 0 0 0 0 0h-0c0.491 0 0.888 0.396 0.888 0.887s-0.397 0.887-0.888 0.887zM7.902 10.38h-0.128v13.016c0 1.033 0.84 1.874 1.873 1.874h1.352c-0.045 0.147-0.071 0.317-0.071 0.492v3.748c0 0.98 0.795 1.775 1.775 1.775s1.775-0.795 1.775-1.775v-3.748c0-0.17-0.026-0.336-0.070-0.492h3.295c-0.044 0.147-0.070 0.317-0.070 0.492v3.748c0 0.98 0.795 1.775 1.774 1.775s1.775-0.795 1.775-1.775v-3.748c-0-0.175-0.026-0.345-0.074-0.505l0.003 0.012h1.352c1.033 0 1.873-0.84 1.873-1.874v-13.016h-16.437zM4.817 10.38c-0.98 0-1.775 0.794-1.775 1.775v7.592c0 0.979 0.794 1.774 1.775 1.774 0.979 0 1.774-0.795 1.774-1.774v-7.592c0-0.981-0.794-1.775-1.774-1.775zM27.298 10.38c-0.981 0-1.775 0.794-1.775 1.775v7.592c0 0.979 0.794 1.774 1.775 1.774 0.979 0 1.773-0.795 1.773-1.774v-7.592c0-0.981-0.794-1.775-1.773-1.775z"></path>
</symbol>
<symbol id="icon-angular" viewBox="0 0 32 32">
<title>angular</title>
<path fill="#fff" style="fill: var(--color3, #fff)" d="M15.8 0.8l-14.133 5.067 2.133 18.667 12 6.667 12.2-6.733 2.333-18.733-14.533-4.933zM21.933 23.933l-1.933-4.467h-7.933l-1.8 4.4-3.267 0.067 8.8-19.6 9.267 19.667-3.133-0.067z"></path>
<path fill="#fff" style="fill: var(--color3, #fff)" d="M15.867 16.8h3l-3-6.2-2.6 6.2z"></path>
</symbol>
<symbol id="icon-back-end" viewBox="0 0 32 32">
<title>back-end</title>
<path fill="#000" style="fill: var(--color4, #000)" d="M29.14 2.672h-26.12c-0.423 0-0.769 0.345-0.769 0.769v17.548c0 0.474 0.345 0.863 0.769 0.863h5.914c0.206-0.081 0.416-0.163 0.631-0.246 0.416-0.162 0.846-0.328 1.274-0.507 0.971-0.405 1.562-0.672 1.903-0.835l0.010-1.015c-0.151-0.188-0.326-0.459-0.491-0.827h-8.466v-13.837h24.506v13.838h-8.403c-0.164 0.368-0.34 0.639-0.49 0.827l0.009 1.015c0.341 0.163 0.93 0.43 1.902 0.835 0.429 0.179 0.859 0.346 1.274 0.507 0.216 0.084 0.425 0.166 0.632 0.247h5.914c0.423 0 0.768-0.388 0.768-0.863v-17.548c-0-0.423-0.346-0.769-0.768-0.769z"></path>
<path fill="#5162ad" style="fill: var(--color5, #5162ad)" d="M25.526 24.208c-0.591-0.921-2.574-1.493-4.538-2.312-0.036-0.015-0.070-0.029-0.105-0.044-1.872-0.783-2.324-1.058-2.324-1.058l-0.018-1.884s0.178-0.139 0.386-0.489c0.216-0.362 0.461-0.948 0.578-1.848 0.459 0.133 0.942-0.686 0.968-1.118 0.026-0.415-0.064-1.57-0.625-1.454 0.115-0.869 0.198-1.65 0.158-2.063-0.146-1.514-1.636-3.109-3.926-3.109s-3.781 1.595-3.927 3.109c-0.040 0.413 0.043 1.194 0.158 2.063-0.561-0.116-0.651 1.038-0.625 1.454 0.026 0.432 0.509 1.252 0.97 1.118 0.116 0.901 0.362 1.487 0.577 1.848 0.208 0.35 0.386 0.489 0.386 0.489l-0.018 1.884s-0.452 0.275-2.324 1.058c0.005-0-0.029 0.014-0.064 0.029l-0.041 0.015c-1.963 0.819-3.947 1.391-4.537 2.312-0.529 0.825-0.37 3.636-0.37 3.636h19.631s0.159-2.811-0.37-3.636z"></path>
<path fill="#000" style="fill: var(--color4, #000)" d="M5.809 7.73l1.101 1.1-1.101 1.101 0.473 0.473 1.574-1.574-1.574-1.573zM8.72 8.162h2.006v0.668h-2.006zM27.683 29.419h-23.246s-0.731-4.28 0-4.983c3.652-3.512 19.137-3.193 23.246 0 0.822 0.639 0 4.983 0 4.983z"></path>
</symbol>
<symbol id="icon-bootstrap" viewBox="0 0 32 32">
<title>bootstrap</title>
<path fill="#fff" style="fill: var(--color3, #fff)" d="M18.691 17.821c-0.484-0.407-1.215-0.61-2.192-0.61h-2.832v4.865h2.832c0.969 0 1.695-0.203 2.179-0.61 0.494-0.407 0.739-1.020 0.739-1.842 0-0.804-0.241-1.405-0.727-1.804zM18.066 13.454c0.392-0.331 0.587-0.821 0.587-1.468 0-0.638-0.196-1.123-0.587-1.456-0.394-0.34-0.97-0.51-1.73-0.51h-2.669v3.932h2.669c0.76-0 1.337-0.166 1.73-0.498z"></path>
<path fill="#fff" style="fill: var(--color3, #fff)" d="M26.186 1.042h-20.15c-2.656 0-4.809 2.16-4.809 4.824v20.339c0 2.664 2.153 4.824 4.809 4.824h20.15c2.656 0 4.808-2.16 4.808-4.824v-20.339c0-2.665-2.152-4.824-4.808-4.824zM22.413 24.017c-1.22 0.88-3.074 1.318-5.564 1.318h-8.007v-18.575h7.243c2.597 0 4.477 0.39 5.639 1.169 1.17 0.78 1.755 2.028 1.755 3.745 0 0.904-0.213 1.675-0.64 2.314-0.426 0.631-1.045 1.099-1.854 1.405 1.036 0.299 1.838 0.85 2.406 1.655 0.569 0.805 0.851 1.792 0.851 2.961 0.001 1.792-0.609 3.128-1.829 4.006z"></path>
</symbol>
<symbol id="icon-cloud" viewBox="0 0 32 32">
<title>cloud</title>
<path fill="#fff" style="fill: var(--color3, #fff)" d="M28.002 13.183c2.115 0.858 3.603 2.933 3.603 5.357 0 3.186-2.587 5.78-5.78 5.78h-19.652c-3.199 0-5.779-2.587-5.779-5.78 0-2.371 1.433-4.414 3.481-5.304-0.009-0.142-0.014-0.307-0.014-0.474 0-0.001 0-0.002 0-0.002v0c0-4.469 3.623-8.092 8.092-8.092 3.020 0 5.653 1.655 7.044 4.107 0.84-0.409 1.784-0.639 2.782-0.639 3.062 0 5.617 2.164 6.222 5.047z"></path>
</symbol>
<symbol id="icon-css3" viewBox="0 0 32 32">
<title>css3</title>
<path fill="#fff" style="fill: var(--color3, #fff)" d="M27.929 28.175l2.571-27.855h-28.6l0.033 0.361 2.556 27.728 11.603 3.116h0.182l11.634-3.12 0.021-0.229zM16.223 6.404h8.312l-0.25 2.814-8.199 3.526 0.138 0.634h7.695l-0.886 9.818-6.837 1.834-6.835-1.83-0.434-4.702h2.814l0.247 2.615 4.148 1.066 0.178-0.001 4.102-1.103 0.020-0.23 0.387-4.403 0.032-0.359h-12.159l-0.256-2.826 8.48-3.511-0.134-0.637h-8.707l-0.248-2.703 8.393-0z"></path>
</symbol>
<symbol id="icon-elastic-search" viewBox="0 0 32 32">
<title>elastic-search</title>
<path fill="#fff" style="fill: var(--color3, #fff)" d="M12.757 13.43l6.997 3.204 7.074-6.203c0.098-0.466 0.154-1.001 0.154-1.549 0-0.005 0-0.010 0-0.015v0.001c0-4.357-3.537-7.894-7.894-7.894-2.614 0-5.049 1.281-6.51 3.434l-1.179 6.1 1.358 2.922zM5.503 20.838c-0.102 0.513-0.154 1.051-0.154 1.589 0 4.357 3.563 7.92 7.92 7.92 2.64 0 5.075-1.307 6.561-3.46l1.153-6.1-1.563-2.973-7.023-3.204-6.895 6.228zM5.452 8.714l4.793 1.128 1.076-5.459c-0.666-0.513-1.461-0.769-2.307-0.769-2.076 0-3.793 1.692-3.793 3.793 0 0.436 0.077 0.897 0.231 1.307h0zM5.042 9.868c-2.153 0.692-3.64 2.768-3.64 5.024 0 2.204 1.358 4.178 3.409 4.947l6.741-6.1-1.23-2.64-5.28-1.23zM21.061 26.861c0.666 0.513 1.461 0.795 2.281 0.795 2.076 0 3.793-1.692 3.793-3.793 0-0.461-0.077-0.897-0.231-1.307l-4.793-1.128-1.051 5.434zM22.035 20.171l5.28 1.23c2.153-0.718 3.639-2.768 3.639-5.024 0-2.204-1.358-4.152-3.409-4.947l-6.92 6.049 1.41 2.691z"></path>
</symbol>
<symbol id="icon-fireworks" viewBox="0 0 32 32">
<title>fireworks</title>
<path fill="#fff" style="fill: var(--color3, #fff)" d="M1.040 1.040v30.040h30.040v-30.040h-30.040zM13.209 11.697h-4.262v3.333h3.973v1.81h-3.973v5.125h-1.97v-12.078h6.232v1.81zM22.692 21.965h-1.826l-0.929-3.548c-0.241-0.913-0.417-1.738-0.592-2.795h-0.032c-0.161 1.076-0.37 1.936-0.593 2.795l-0.994 3.548h-1.842l-2.307-8.727h2.019l0.817 3.96c0.177 0.933 0.353 1.883 0.497 2.832h0.032c0.16-0.949 0.417-1.917 0.641-2.813l1.009-3.978h1.602l0.977 3.87c0.24 1.022 0.449 1.972 0.625 2.921h0.032c0.128-0.949 0.304-1.899 0.512-2.921l0.865-3.87h1.939l-2.452 8.727z"></path>
</symbol>
<symbol id="icon-front" viewBox="0 0 32 32">
<title>front</title>
<path fill="#686059" style="fill: var(--color6, #686059)" d="M29.14 2.672h-26.12c-0.423 0-0.769 0.345-0.769 0.769v17.548c0 0.474 0.345 0.863 0.769 0.863h5.914c0.206-0.081 0.416-0.163 0.631-0.246 0.416-0.162 0.846-0.328 1.274-0.507 0.971-0.405 1.562-0.672 1.903-0.835l0.010-1.015c-0.151-0.188-0.326-0.459-0.491-0.827h-8.466v-13.837h24.506v13.838h-8.403c-0.164 0.368-0.34 0.639-0.49 0.827l0.009 1.015c0.341 0.163 0.93 0.43 1.902 0.835 0.429 0.179 0.859 0.346 1.274 0.507 0.216 0.084 0.425 0.166 0.632 0.247h5.914c0.423 0 0.768-0.388 0.768-0.863v-17.548c-0-0.423-0.346-0.769-0.768-0.769z"></path>
<path fill="#f79226" style="fill: var(--color7, #f79226)" d="M25.526 24.208c-0.591-0.921-2.574-1.493-4.538-2.312-0.036-0.015-0.070-0.029-0.105-0.044-1.872-0.783-2.324-1.058-2.324-1.058l-0.018-1.884s0.178-0.139 0.386-0.489c0.216-0.362 0.461-0.948 0.578-1.848 0.459 0.133 0.942-0.686 0.968-1.118 0.026-0.415-0.064-1.57-0.625-1.454 0.115-0.869 0.198-1.65 0.158-2.063-0.146-1.514-1.636-3.109-3.926-3.109s-3.781 1.595-3.927 3.109c-0.040 0.413 0.043 1.194 0.158 2.063-0.561-0.116-0.651 1.038-0.625 1.454 0.026 0.432 0.509 1.252 0.97 1.118 0.116 0.901 0.362 1.487 0.577 1.848 0.208 0.35 0.386 0.489 0.386 0.489l-0.018 1.884s-0.452 0.275-2.324 1.058c0.005-0-0.029 0.014-0.064 0.029l-0.041 0.015c-1.963 0.819-3.947 1.391-4.537 2.312-0.529 0.825-0.37 3.636-0.37 3.636h19.631s0.159-2.811-0.37-3.636z"></path>
<path fill="#686059" style="fill: var(--color6, #686059)" d="M5.809 7.73l1.101 1.1-1.101 1.101 0.473 0.473 1.574-1.574-1.574-1.573zM8.72 8.162h2.006v0.668h-2.006zM27.683 29.419h-23.246s-0.731-4.28 0-4.983c3.652-3.512 19.137-3.193 23.246 0 0.822 0.639 0 4.983 0 4.983z"></path>
<path fill="#3f59a8" style="fill: var(--color8, #3f59a8)" d="M21.56 5.16h5.92v3.76h-5.92z"></path>
<path fill="#cc2949" style="fill: var(--color9, #cc2949)" d="M21.56 9.582h5.92v3.76h-5.92z"></path>
<path fill="#f8e711" style="fill: var(--color10, #f8e711)" d="M21.56 14.12h5.92v3.76h-5.92z"></path>
</symbol>
<symbol id="icon-github" viewBox="0 0 32 32">
<title>github</title>
<path fill="#fff" style="fill: var(--color3, #fff)" d="M18.61 21.878c2.946-0.348 6.080-1.419 6.080-6.508 0-1.446-0.509-2.625-1.339-3.536 0.134-0.348 0.562-1.66-0.161-3.482 0 0-1.071-0.348-3.589 1.339-1.071-0.294-2.25-0.482-3.348-0.482-1.125 0-2.304 0.188-3.349 0.482-2.544-1.687-3.616-1.339-3.616-1.339-0.723 1.821-0.294 3.134-0.16 3.482-0.83 0.911-1.339 2.090-1.339 3.536 0 5.089 3.134 6.16 6.080 6.508-0.375 0.322-0.723 0.938-0.857 1.795-0.75 0.321-2.706 0.937-3.884-1.098 0 0-0.697-1.258-2.009-1.339 0 0-1.313-0.027-0.107 0.803 0 0 0.884 0.402 1.473 1.928 0 0 0.803 2.545 4.499 1.741v2.276c0 0.349-0.268 0.75-0.937 0.643-5.25-1.741-9.026-6.723-9.026-12.562 0-7.312 5.919-13.231 13.232-13.231 7.285 0 13.231 5.919 13.205 13.231 0 5.839-3.777 10.794-9.026 12.562-0.67 0.134-0.938-0.268-0.938-0.643v-3.669c0-1.233-0.402-2.036-0.884-2.438zM31.36 16.094c0-8.357-6.777-15.134-15.106-15.134-8.357 0-15.134 6.776-15.134 15.134 0 8.33 6.776 15.106 15.134 15.106 8.33 0 15.106-6.777 15.106-15.106z"></path>
</symbol>
<symbol id="icon-gulp" viewBox="0 0 32 32">
<title>gulp</title>
<path fill="#fff" style="fill: var(--color3, #fff)" d="M21.638 30.632l0.347-5.049 0.957-1.428s-2.179 0.779-5.828 0.779c-3.649 0-5.795-0.765-5.795-0.765l1.073 1.558 0.38 4.905c0 0.526 1.985 0.952 4.433 0.952s4.433-0.426 4.433-0.952zM20.544 7.052l0.728-2.514 4.031-3.706-1.062-0.791-4.268 3.948-0.845 3.004c-0.565-0.018-1.23-0.028-1.897-0.028-0.004 0-0.008 0-0.012 0h0.001c-4.495 0-8.138 0.448-8.138 1s3.643 1 8.138 1c4.494 0 8.138-0.447 8.138-1 0-0.407-1.976-0.756-4.813-0.913z"></path>
<path fill="#fff" style="fill: var(--color3, #fff)" d="M20.121 8.46s-0.158 0.031-0.621 0.033c-0.464 0.002-0.793-0.003-0.924-0.107-0.035-0.028-0.055-0.084-0.054-0.121 0-0.072 0.059-0.114 0.133-0.14l0.070 0.096c-0.030 0.009-0.048 0.020-0.048 0.032-0 0.054 0.474 0.092 0.837 0.088s0.802-0.030 0.802-0.084c0-0.016-0.033-0.032-0.091-0.044l0.070-0.096c0.094 0.026 0.176 0.075 0.176 0.16-0.001 0.145-0.212 0.167-0.349 0.183zM25.295 0.839c0.101-0.102-0.052-0.364-0.344-0.584s-0.609-0.316-0.711-0.214c-0.101 0.102 0.052 0.364 0.344 0.584s0.609 0.316 0.711 0.214zM21.444 18.299c-0.096-0.803 2.010-1.966 1.47-2.004-1.163 0.058-1.742 1.191-2.328 2.378-0.215 0.435-0.948 2.29-1.43 2.062s0.624-1.754 0.934-2.66c-0.358 0.229-1.668 1.119-2.006 0.285-0.543 0.403-1.704 0.622-1.573-0.437-0.289 0.447-0.938 1.072-1.716 0.812-1.022-0.341 0.592-3.186 0.994-3.043s-0.081 0.792-0.207 1.043c-0.278 0.554-0.599 1.25-0.384 1.393 0.367 0.244 1.368-0.924 1.39-0.95 0.187-0.216 0.72-1.629 1.149-1.466s-1.071 2.027-0.51 2.398c0.113 0.075 0.576-0.046 0.858-0.312 0.182-0.172 0.12-0.554 0.727-1.82s1.149-2.842 1.565-2.722c0.417 0.12 0.073 0.929-0.076 1.231-0.701 1.416-1.914 3.755-1.342 3.577s0.87-0.187 1.43-0.76c0.56-0.573 0.534-1.516 0.908-1.496s0.311 0.323 0.22 0.553c0.367-0.367 1.742-1.141 2.073-0.375 0.393 0.907-1.966 2.218-1.378 2.151 0.573-0.065 1.503-0.579 1.899-1.047l1.092-8.578s-1.099 0.795-8.089 0.795c-6.99 0-7.975-0.778-7.975-0.778l0.93 7.83c0.493-1.226 1.665-3.704 3.512-3.621 0.84 0.038 1.962 1.451 1.001 1.499-0.407 0.020-0.448-0.706-0.929-0.812-0.348-0.077-0.831 0.17-1.144 0.437-0.624 0.533-1.965 2.637-1.787 3.686 0.226 1.337 2.112-0.465 2.431-1 0.225-0.377 0.377-1.493 0.868-1.376s-0.043 1.269-0.399 2.288c-0.4 1.144-0.611 2.351-1.112 2.212s0.316-1.616 0.286-1.874c-0.472 0.38-1.34 1.343-2.452 0.866l0.577 4.862s1.534 1.059 6.157 1.059c4.622 0 6.214-1.043 6.214-1.043l0.717-5.632c-0.586 0.499-2.443 1.386-2.562 0.387z"></path>
</symbol>
<symbol id="icon-heart" viewBox="0 0 32 32">
<title>heart</title>
<path fill="#fff" style="fill: var(--color3, #fff)" d="M14.75 28.818c-0.683-0.766-2.39-2.259-3.792-3.318-4.155-3.138-4.72-3.592-6.407-5.145-3.11-2.864-4.431-5.741-4.426-9.642 0.002-1.904 0.132-2.638 0.665-3.76 0.905-1.904 2.238-3.32 3.941-4.185 1.207-0.613 1.802-0.885 3.817-0.897 2.108-0.012 2.552 0.234 3.792 0.915 1.509 0.829 3.063 2.601 3.384 3.86l0.198 0.778 0.489-1.071c2.764-6.051 11.589-5.961 14.661 0.15 0.974 1.939 1.081 6.078 0.217 8.41-1.127 3.042-3.244 5.361-8.137 8.914-3.209 2.331-6.841 5.857-7.094 6.352-0.293 0.575-0.014 0.090-1.31-1.362z"></path>
</symbol>
<symbol id="icon-html5" viewBox="0 0 32 32">
<title>html5</title>
<path fill="#fff" style="fill: var(--color3, #fff)" d="M2.063 0.44l2.51 28.155 11.268 3.128 11.278-3.126 2.515-28.157h-27.571zM24.188 9.648h-13.215l0.315 3.536h12.586l-0.947 10.605-7.084 1.962-7.074-1.962-0.494-5.547h3.466l0.257 2.877 3.851 1.038 3.85-1.039 0.401-4.479h-11.968l-0.932-10.443h17.296l-0.308 3.451z"></path>
</symbol>
<symbol id="icon-ionic" viewBox="0 0 32 32">
<title>ionic</title>
<path fill="#fff" style="fill: var(--color3, #fff)" d="M26.594 8.463c0.294-0.369 0.469-0.844 0.469-1.35 0-1.2-0.975-2.175-2.175-2.175-0.512 0-0.981 0.175-1.35 0.469-2.125-1.513-4.731-2.406-7.537-2.406-7.181 0-13 5.819-13 13s5.819 13 13 13 13-5.819 13-13c0-2.806-0.894-5.412-2.406-7.537zM24.488 24.488c-1.1 1.1-2.387 1.969-3.819 2.575-1.481 0.625-3.050 0.944-4.675 0.944-1.619 0-3.194-0.319-4.675-0.944-1.431-0.606-2.713-1.469-3.819-2.575-1.1-1.1-1.969-2.387-2.575-3.819-0.625-1.481-0.944-3.050-0.944-4.675 0-1.619 0.319-3.194 0.944-4.675 0.606-1.431 1.469-2.713 2.575-3.819s2.388-1.969 3.819-2.575c1.481-0.625 3.050-0.944 4.675-0.944 1.619 0 3.194 0.319 4.675 0.944 0.794 0.338 1.544 0.756 2.244 1.25-0.131 0.281-0.206 0.594-0.206 0.931 0 1.2 0.975 2.175 2.175 2.175 0.331 0 0.644-0.075 0.931-0.206 0.494 0.7 0.913 1.45 1.25 2.244 0.625 1.481 0.944 3.050 0.944 4.675 0 1.619-0.319 3.194-0.944 4.675-0.606 1.431-1.469 2.719-2.575 3.819z"></path>
<path fill="#fff" style="fill: var(--color3, #fff)" d="M22.006 16c0 3.317-2.689 6.006-6.006 6.006s-6.006-2.689-6.006-6.006c0-3.317 2.689-6.006 6.006-6.006s6.006 2.689 6.006 6.006z"></path>
</symbol>
<symbol id="icon-java" viewBox="0 0 32 32">
<title>java</title>
<path fill="#fff" style="fill: var(--color3, #fff)" d="M12.513 24.747s-1.223 0.711 0.87 0.952c2.536 0.289 3.832 0.248 6.626-0.281 0 0 0.735 0.461 1.761 0.86-6.264 2.685-14.177-0.155-9.257-1.53zM11.748 21.244s-1.372 1.015 0.723 1.232c2.709 0.279 4.848 0.302 8.549-0.41 0 0 0.512 0.519 1.317 0.803-7.574 2.215-16.010 0.175-10.59-1.624zM18.201 15.301c1.544 1.777-0.405 3.376-0.405 3.376s3.919-2.023 2.119-4.557c-1.681-2.363-2.97-3.537 4.009-7.584-0-0-10.955 2.736-5.723 8.765z"></path>
<path fill="#fff" style="fill: var(--color3, #fff)" d="M26.486 27.339s0.905 0.746-0.997 1.322c-3.616 1.095-15.050 1.426-18.226 0.044-1.142-0.497 0.999-1.186 1.673-1.331 0.702-0.152 1.104-0.124 1.104-0.124-1.27-0.894-8.207 1.756-3.524 2.516 12.772 2.071 23.283-0.933 19.97-2.427zM13.101 17.614s-5.816 1.381-2.059 1.883c1.586 0.212 4.748 0.164 7.693-0.082 2.407-0.203 4.824-0.635 4.824-0.635s-0.849 0.363-1.463 0.783c-5.906 1.553-17.315 0.831-14.031-0.758 2.778-1.343 5.036-1.19 5.036-1.19zM23.535 23.446c6.004-3.12 3.228-6.118 1.29-5.714-0.475 0.099-0.687 0.184-0.687 0.184s0.176-0.276 0.513-0.396c3.833-1.348 6.781 3.974-1.237 6.082-0 0 0.093-0.083 0.121-0.157zM19.915 0s3.325 3.326-3.154 8.441c-5.195 4.103-1.185 6.442-0.002 9.115-3.033-2.736-5.258-5.145-3.765-7.386 2.191-3.29 8.262-4.886 6.921-10.169z"></path>
<path fill="#fff" style="fill: var(--color3, #fff)" d="M13.691 31.899c5.763 0.369 14.612-0.205 14.822-2.932 0 0-0.403 1.034-4.763 1.855-4.919 0.926-10.985 0.818-14.583 0.224 0-0 0.737 0.61 4.524 0.853z"></path>
</symbol>
<symbol id="icon-jquery" viewBox="0 0 32 32">
<title>jquery</title>
<path fill="#fff" style="fill: var(--color3, #fff)" d="M2.065 9.456c-2.694 3.759-2.358 8.649-0.301 12.643 0.049 0.096 0.1 0.19 0.151 0.284 0.032 0.059 0.063 0.121 0.096 0.179 0.019 0.035 0.040 0.070 0.060 0.104 0.035 0.064 0.071 0.124 0.107 0.186 0.108 0.188 0.173 0.294 0.239 0.4l-0.043-0.074c0.037 0.060 0.074 0.119 0.112 0.179 0.108 0.171 0.183 0.284 0.26 0.395l-0.032-0.049c0.032 0.049 0.064 0.098 0.097 0.145 0.141 0.206 0.249 0.357 0.36 0.505l-0.030-0.043c0.003 0.004 0.006 0.008 0.010 0.012 0.018 0.025 0.038 0.049 0.056 0.073 0.126 0.168 0.225 0.295 0.325 0.42l-0.024-0.031c0.038 0.047 0.076 0.093 0.113 0.14 0.117 0.143 0.208 0.251 0.3 0.358l-0.022-0.026c0.035 0.041 0.071 0.082 0.106 0.123 0.142 0.162 0.268 0.302 0.397 0.44l-0.009-0.010c0.002 0.003 0.005 0.005 0.008 0.008 0.005 0.006 0.010 0.010 0.015 0.015 0.134 0.142 0.263 0.273 0.393 0.403l0.001 0.001c0.139 0.137 0.283 0.275 0.428 0.411l0.013 0.012c0.043 0.040 0.086 0.080 0.129 0.118 0.127 0.117 0.267 0.241 0.409 0.363l0.021 0.018c0.003 0.003 0.004 0.004 0.007 0.005 0.025 0.021 0.050 0.042 0.075 0.062 0.095 0.081 0.222 0.186 0.351 0.29l0.040 0.031c0.054 0.042 0.108 0.084 0.162 0.125 0.068 0.054 0.174 0.135 0.281 0.215l0.045 0.032c-0.061-0.042-0.004 0 0.053 0.043l0.122 0.086c0.064 0.048 0.183 0.132 0.303 0.214l0.063 0.041c0.045 0.032 0.088 0.062 0.133 0.092 0.012 0.009 0.024 0.017 0.036 0.026 0.055 0.039 0.171 0.114 0.287 0.188l0.068 0.040c0.051 0.033 0.102 0.067 0.154 0.099 0.083 0.056 0.265 0.166 0.449 0.273l0.108 0.058c0.051 0.028 0.103 0.056 0.154 0.084 0.045 0.030 0.182 0.105 0.319 0.179l0.098 0.048c0.076 0.040 0.154 0.077 0.231 0.115 0.1 0.051 0.198 0.102 0.299 0.151 0.023 0.011 0.047 0.022 0.069 0.033 0.040 0.019 0.081 0.038 0.122 0.058 0.027 0.019 0.183 0.090 0.339 0.16l0.134 0.053c0.034 0.015 0.067 0.029 0.1 0.043 0.075 0.038 0.257 0.113 0.441 0.185l0.111 0.038c0.045 0.017 0.090 0.034 0.135 0.052 0.036 0.020 0.208 0.084 0.382 0.145l0.139 0.043c0.022 0.008 0.044 0.015 0.066 0.022 0.192 0.065 0.386 0.126 0.582 0.185 0.047 0.013 0.093 0.028 0.14 0.041 0.199 0.058 0.395 0.127 0.601 0.164 13.029 2.306 16.813-7.6 16.813-7.6-3.178 4.020-8.82 5.080-14.166 3.899-0.203-0.044-0.399-0.105-0.597-0.162-0.050-0.015-0.099-0.029-0.149-0.044-0.324-0.093-0.515-0.155-0.705-0.22l0.131 0.039c-0.026-0.009-0.052-0.018-0.079-0.028-0.17-0.058-0.339-0.119-0.507-0.182-0.047-0.018-0.095-0.036-0.142-0.054-0.292-0.109-0.473-0.184-0.651-0.261l0.104 0.040c-0.037-0.015-0.073-0.031-0.109-0.047-0.291-0.123-0.443-0.193-0.594-0.264l0.132 0.056c-0.044-0.021-0.088-0.041-0.133-0.062-0.12-0.057-0.239-0.117-0.357-0.176-0.079-0.040-0.16-0.079-0.238-0.121-0.219-0.113-0.359-0.19-0.497-0.27l0.070 0.037c-0.048-0.026-0.096-0.051-0.145-0.078-0.28-0.159-0.462-0.268-0.642-0.381l0.085 0.049c-0.051-0.031-0.1-0.065-0.15-0.097-0.188-0.116-0.318-0.201-0.445-0.287l0.049 0.031c-0.043-0.028-0.085-0.059-0.128-0.087-0.191-0.129-0.313-0.216-0.434-0.304l0.059 0.041c-0.056-0.040-0.111-0.082-0.166-0.122-0.155-0.114-0.265-0.198-0.374-0.284l0.036 0.027c-0.092-0.070-0.141-0.108-0.19-0.147l0.039 0.030c-0.178-0.141-0.315-0.254-0.45-0.368l0.029 0.024c-0.014-0.013-0.030-0.025-0.046-0.038-0.172-0.148-0.316-0.276-0.459-0.405l0.016 0.014c-0.042-0.039-0.083-0.077-0.125-0.117-0.114-0.105-0.218-0.204-0.32-0.304l0.002 0.002c-0.042-0.040-0.084-0.081-0.125-0.121-0.13-0.129-0.257-0.26-0.382-0.393l-0.008-0.008c-0.006-0.007-0.013-0.013-0.019-0.020-0.125-0.132-0.254-0.275-0.38-0.419l-0.015-0.018c-0.035-0.040-0.069-0.080-0.104-0.119-0.077-0.089-0.17-0.2-0.262-0.313l-0.023-0.029c-0.035-0.041-0.070-0.084-0.105-0.126-0.079-0.098-0.187-0.236-0.293-0.376l-0.036-0.049c-2.968-3.929-4.034-9.349-1.662-13.8z"></path>
<path fill="#fff" style="fill: var(--color3, #fff)" d="M10.428 6.29c-1.948 2.722-1.842 6.365-0.323 9.243 0.255 0.483 0.541 0.951 0.862 1.396 0.292 0.406 0.615 0.889 1.003 1.215 0.144 0.153 0.287 0.297 0.433 0.436l0.004 0.004c0.038 0.038 0.077 0.074 0.115 0.111 0.136 0.129 0.282 0.26 0.43 0.388l0.017 0.014c0.006 0.005 0.012 0.011 0.018 0.015 0.002 0.002 0.003 0.003 0.004 0.004 0.169 0.144 0.344 0.282 0.522 0.419 0.039 0.029 0.078 0.060 0.118 0.090 0.178 0.132 0.359 0.263 0.546 0.387 0.005 0.004 0.010 0.008 0.016 0.012 0.082 0.055 0.166 0.106 0.249 0.159 0.040 0.025 0.078 0.052 0.118 0.076 0.083 0.055 0.215 0.134 0.349 0.211l0.055 0.029c0.019 0.012 0.038 0.021 0.057 0.032 0.044 0.028 0.161 0.093 0.279 0.156l0.079 0.038c0.042 0.023 0.085 0.043 0.127 0.064 0.083 0.042 0.166 0.085 0.25 0.126 0.012 0.006 0.025 0.011 0.038 0.016 0.097 0.051 0.269 0.13 0.443 0.205l0.079 0.030c0.038 0.016 0.077 0.031 0.115 0.046 0.141 0.058 0.284 0.115 0.427 0.168 0.061 0.022 0.122 0.044 0.183 0.066 0.13 0.047 0.261 0.090 0.392 0.133 0.060 0.018 0.118 0.037 0.178 0.055 0.187 0.056 0.372 0.128 0.568 0.159 10.059 1.618 12.382-5.9 12.382-5.9-2.094 2.926-6.148 4.323-10.474 3.233-0.278-0.069-0.468-0.124-0.657-0.184l0.087 0.024c-0.058-0.017-0.114-0.035-0.171-0.054-0.218-0.067-0.351-0.112-0.482-0.16l0.083 0.026c-0.060-0.021-0.121-0.043-0.18-0.065-0.238-0.086-0.38-0.143-0.521-0.202l0.092 0.034c-0.039-0.016-0.078-0.030-0.116-0.047-0.257-0.107-0.429-0.186-0.6-0.269l0.075 0.033c-0.089-0.043-0.176-0.087-0.263-0.13-0.050-0.026-0.101-0.051-0.152-0.076-0.176-0.091-0.285-0.152-0.393-0.214l0.060 0.032c-0.026-0.014-0.053-0.028-0.079-0.044-0.196-0.11-0.328-0.189-0.458-0.271l0.055 0.032c-0.041-0.026-0.080-0.053-0.121-0.079-0.149-0.092-0.235-0.148-0.319-0.204l0.058 0.036c-0.185-0.124-0.366-0.254-0.544-0.386-0.041-0.031-0.082-0.062-0.122-0.093-1.894-1.451-3.394-3.435-4.108-5.684-0.748-2.333-0.587-4.95 0.709-7.075z"></path>
<path fill="#fff" style="fill: var(--color3, #fff)" d="M17.462 3.924c-1.148 1.641-1.261 3.678-0.464 5.491 0.84 1.924 2.563 3.432 4.573 4.148 0.083 0.030 0.165 0.057 0.25 0.084 0.037 0.011 0.073 0.023 0.11 0.034 0.118 0.036 0.236 0.078 0.358 0.101 5.554 1.042 7.061-2.767 7.462-3.328-1.32 1.845-3.538 2.287-6.259 1.646-0.215-0.051-0.451-0.126-0.658-0.198-0.322-0.111-0.58-0.217-0.832-0.336l0.050 0.021c-0.524-0.247-0.974-0.518-1.393-0.828l0.022 0.016c-2.435-1.794-3.948-5.215-2.359-8.002z"></path>
</symbol>
<symbol id="icon-js" viewBox="0 0 32 32">
<title>js</title>
<path fill="#fff" style="fill: var(--color3, #fff)" d="M15.943 30.437c-0.458 0-0.915-0.102-1.313-0.305l-4.161-2.121c-0.62-0.305-0.325-0.406-0.118-0.47 0.826-0.254 1.003-0.305 1.889-0.737 0.089-0.051 0.221-0.025 0.31 0.026l3.202 1.638c0.118 0.051 0.28 0.051 0.384 0l12.469-6.197c0.118-0.051 0.192-0.178 0.192-0.292v-12.382c0-0.127-0.074-0.229-0.192-0.292l-12.468-6.184c-0.056-0.030-0.122-0.048-0.192-0.048s-0.136 0.018-0.194 0.049l0.002-0.001-12.454 6.184c-0.118 0.063-0.192 0.178-0.192 0.292v12.382c0 0.114 0.074 0.228 0.192 0.292l3.409 1.702c1.859 0.8 2.981-0.14 2.981-1.079v-12.229c0-0.178 0.162-0.305 0.369-0.305h1.579c0.192 0 0.354 0.14 0.354 0.305v12.217c0 2.133-1.343 3.353-3.689 3.353-0.723 0-1.284 0-2.877-0.673l-3.276-1.626c-0.812-0.406-1.313-1.156-1.313-1.956v-12.382c0-0.8 0.502-1.549 1.313-1.956l12.469-6.197c0.782-0.381 1.845-0.381 2.626 0l12.469 6.197c0.812 0.406 1.313 1.156 1.313 1.956v12.382c0 0.8-0.502 1.549-1.313 1.956l-12.469 6.197c-0.383 0.191-0.841 0.305-1.298 0.305z"></path>
<path fill="#fff" style="fill: var(--color3, #fff)" d="M19.794 21.903c-5.46 0-6.596-2.159-6.596-3.962 0-0.178 0.162-0.305 0.354-0.305h1.608c0.177 0 0.325 0.114 0.354 0.267 0.236 1.41 0.974 2.121 4.264 2.121 2.627 0 3.748-0.508 3.748-1.715 0-0.686-0.31-1.206-4.397-1.549-3.409-0.292-5.519-0.94-5.519-3.289 0-2.159 2.125-3.454 5.681-3.454 3.999 0 5.976 1.194 6.227 3.746 0.015 0.089-0.030 0.178-0.088 0.241-0.074 0.063-0.162 0.102-0.266 0.102h-1.623c-0.162 0-0.31-0.102-0.354-0.241-0.384-1.486-1.328-1.956-3.896-1.956-2.863 0-3.202 0.864-3.202 1.499 0 0.775 0.398 1.003 4.264 1.448 3.837 0.432 5.652 1.054 5.652 3.365-0 2.337-2.272 3.683-6.212 3.683z"></path>
</symbol>
<symbol id="icon-mongo" viewBox="0 0 32 32">
<title>mongo</title>
<path fill="#fff" style="fill: var(--color3, #fff)" d="M16.665 31.191l-0.814-0.269s0.168-1.973-0.275-3.285c-0.038-0.115 0.016-0.261 0.126-0.545 0.086-0.225 0.104-0.518 0.155-0.776 0.103-0.514 0.151-1.962 0.161-1.908 0.062 0.328 0.046 0.732 0.063 0.965 0.049 0.729 0.364 1.614 0.878 1.94 0 0-0.063 0.055-0.225 0.685-0.268 1.032-0.068 3.192-0.068 3.192z"></path>
<path fill="#fff" style="fill: var(--color3, #fff)" d="M22.588 12.858c-1.597-7.037-5.369-9.35-5.775-10.233-0.446-0.625-0.895-1.732-0.895-1.732v0.015c0.378 1.443 0.315 13.223 0.357 14.634 0.088 2.94-0.001 5.758-0.172 7.941 0.033 1.616 0.262 3.355 1.063 3.724 0 0 7.082-4.663 5.421-14.349z"></path>
<path fill="#fff" style="fill: var(--color3, #fff)" d="M16.157 20.499l-0.302-19.591c-0.010-0.039-0.021-0.075-0.031-0.099-0.046 0.621-0.071 0.864-0.66 1.494-0.915 0.713-5.605 4.643-5.988 12.639-0.382 7.995 6.261 12.526 6.261 12.526 0.222-0.51 0.448-1.979 0.605-3.984-0.033-1.55 0.116-2.985 0.116-2.985z"></path>
</symbol>
<symbol id="icon-mysql" viewBox="0 0 32 32">
<title>mysql</title>
<path fill="#fff" style="fill: var(--color3, #fff)" d="M29.106 24.568l-0.001 0.001c-0.049-0.437-1.030-0.967-1.349-1.208-0.638-0.483-1.297-1.008-1.979-1.449-0.357-0.231-0.974-0.409-1.35-0.579-0.537-0.244-1.718-0.479-2.025-0.918-0.582-0.835-0.982-1.847-1.394-2.85-0.412-1.005-0.934-2.063-1.349-3.091-0.206-0.51-0.306-0.969-0.54-1.449-1.45-2.986-3.57-5.488-6.162-7.246-0.851-0.577-1.788-1.108-2.834-1.449-0.592-0.193-1.301-0.085-1.934-0.241h-0.405c-0.355-0.112-0.651-0.516-0.945-0.725-0.611-0.435-1.213-0.741-1.934-1.063-0.272-0.122-0.998-0.409-1.259-0.193-0.153 0.054-0.222 0.123-0.27 0.289-0.153 0.246-0.013 0.63 0.090 0.87 0.289 0.675 0.707 1.085 1.080 1.642 0.337 0.504 0.748 1.076 0.989 1.642 0.507 1.184 0.733 2.5 1.215 3.671 0.185 0.45 0.452 0.963 0.72 1.353 0.216 0.315 0.603 0.554 0.719 0.966 0.245 0.413-0.361 1.823-0.495 2.271-0.518 1.73-0.409 4.149 0.18 5.652 0.233 0.594 0.453 1.287 1.079 1.448 0.046-0.039 0.012-0.017 0.090-0.049 0.133-1.157 0.179-2.273 0.54-3.188 0.225-0.572 0.654-0.965 0.945-1.45 0.213 0.132 0.212 0.517 0.314 0.773 0.266 0.661 0.54 1.379 0.855 2.028 0.66 1.362 1.384 2.67 2.204 3.865 0.291 0.425 0.682 0.886 1.035 1.256 0.15 0.158 0.333 0.239 0.45 0.434h0.045v0.048c-0.604-0.221-0.972-0.876-1.439-1.256-0.901-0.73-1.964-1.814-2.564-2.85-0.27-0.58-0.54-1.16-0.81-1.74v-0.048c-0.112 0.162-0.078 0.338-0.135 0.579-0.254 1.063-0.056 2.268-0.945 2.657-1.016 0.445-1.755-0.715-2.069-1.256-1.022-1.762-1.288-4.721-0.585-7.102 0.156-0.529 0.172-1.177 0.449-1.594-0.045-0.375-0.329-0.482-0.495-0.725-0.27-0.396-0.506-0.862-0.72-1.304-0.423-0.875-0.707-1.904-1.034-2.85-0.133-0.384-0.16-0.748-0.315-1.112-0.236-0.553-0.659-1.103-0.989-1.594-0.471-0.7-1.787-2.048-1.259-3.43 0.836-2.189 3.729-0.524 4.858 0.241 0.283 0.192 0.598 0.589 0.9 0.724 0.495 0.032 0.99 0.064 1.485 0.097 0.922 0.235 1.794 0.414 2.519 0.87 3.406 2.139 5.604 4.316 7.647 7.923 0.425 0.752 0.648 1.577 0.989 2.416 0.501 1.229 1.055 2.504 1.62 3.671 0.269 0.558 0.459 1.164 0.809 1.642 0.147 0.203 0.542 0.266 0.765 0.387 0.665 0.36 1.441 0.637 2.069 1.063 1.131 0.767 2.231 1.687 3.238 2.609 0.385 0.352 0.637 0.867 0.99 1.256v0.194c-0.316 0.096-0.63 0.193-0.945 0.29-0.699 0.193-1.303 0.143-1.979 0.338-0.402 0.116-0.914 0.285-1.35 0.338l0.045 0.048c0.256 0.769 1.634 1.409 2.249 1.884 0.772 0.594 1.497 1.311 2.069 2.125l0.584 0.628c0.133 0.208 0.17 0.479 0.316 0.677v0.048c-0.276-0.105-0.418-0.364-0.63-0.532-0.428-0.338-0.865-0.715-1.305-1.014-0.745-0.508-1.61-0.798-2.383-1.305-0.435-0.285-0.854-0.637-1.26-0.966-0.372-0.301-0.788-0.876-1.035-1.304-0.128-0.224-0.154-0.495-0.315-0.676 0.047-0.395 0.516-0.398 0.809-0.531 1.033-0.468 2.242-0.626 3.823-0.58zM8.277 6.458c0.16 0.167 0.406 0.279 0.533 0.477 0.095 0.149 0.112 0.305 0.222 0.43 0.001 0.508-0.125 0.842-0.4 1.050-0.015 0.016-0.030 0.032-0.045 0.048 1.846 4.596 1.697 4.266 1.548 3.936l-1.992-4.939c-0.192-0.295-0.467-0.516-0.623-0.859h-0.045v-0.048c0.244-0.057 0.474-0.102 0.8-0.095z"></path>
</symbol>
<symbol id="icon-photoshop" viewBox="0 0 32 32">
<title>photoshop</title>
<path fill="#fff" style="fill: var(--color3, #fff)" d="M11.712 11.134c-0.657 0-1.12 0.058-1.372 0.115v4.405c0.29 0.077 0.676 0.096 1.159 0.096 1.777 0 2.859-0.869 2.859-2.396 0-1.449-1.004-2.221-2.646-2.221z"></path>
<path fill="#fff" style="fill: var(--color3, #fff)" d="M0.824 0.729v30.351h30.351v-30.351h-30.351zM15.614 16.214c-0.947 0.947-2.434 1.391-4.115 1.391-0.444 0-0.85-0.019-1.159-0.077v4.907h-2.357v-12.847c0.85-0.154 2.028-0.27 3.632-0.27 1.739 0 3.014 0.367 3.845 1.062 0.773 0.637 1.275 1.661 1.275 2.879-0.001 1.236-0.387 2.26-1.12 2.955zM20.192 22.628c-1.139 0-2.162-0.27-2.859-0.656l0.463-1.72c0.541 0.33 1.565 0.676 2.415 0.676 1.043 0 1.506-0.425 1.506-1.042 0-0.637-0.385-0.966-1.544-1.372-1.836-0.638-2.61-1.643-2.59-2.743 0-1.661 1.372-2.956 3.554-2.956 1.044 0 1.951 0.27 2.492 0.56l-0.464 1.681c-0.406-0.232-1.159-0.541-1.989-0.541-0.851 0-1.314 0.406-1.314 0.986 0 0.599 0.445 0.888 1.643 1.313 1.7 0.619 2.492 1.488 2.511 2.879 0 1.699-1.334 2.935-3.826 2.935z"></path>
</symbol>
<symbol id="icon-sass" viewBox="0 0 32 32">
<title>sass</title>
<path fill="#fff" style="fill: var(--color3, #fff)" d="M31.634 21.878c-0.103-0.841-0.571-1.492-1.285-2.004 0.177 0.126 0.326 0.233-0.003-0.002-0.444-0.317-0.209-0.149-0.003-0.002-1.762-1.255-4.060-0.976-5.979-0.279-0.769-1.254-0.803-2.212-0.36-3.581 0.057-0.173 0.018-0.269-0.162-0.346-0.438-0.187-1.069-0.088-1.51 0.029-0.152 0.040-0.263 0.117-0.297 0.271-0.319 1.498-1.299 2.871-2.153 4.134-0.602-1.153-0.554-2.045-0.149-3.246 0.049-0.146 0.027-0.224-0.12-0.302-0.449-0.232-1.137-0.118-1.595 0.017-0.526 0.153-1.316 2.756-1.568 3.273-0.527 1.078-0.995 2.761-1.89 3.616-0.76-0.977 1.392-3.184 0.673-4.070-0.243-0.3-0.684-0.292-0.963-0.038 0.067-0.47 0.102-0.779-0.020-1.178-0.129-0.42-0.455-0.661-0.933-0.648-1.112 0.033-2.092 0.854-2.759 1.632-0.635 0.748-2.31 1.213-3.211 1.664-1.547-1.348-4.897-2.778-4.984-5.074-0.094-2.587 2.987-4.342 5.044-5.392 2.675-1.366 6.797-3.066 9.837-1.572 0.807 0.396 1.131 1.247 0.909 2.061-0.579 2.124-2.917 3.541-4.951 4.191-1.001 0.32-2.1 0.558-3.159 0.496-1.419-0.083-2.524-0.941-2.675-0.994-0.127-0.024-0.117 0.14-0.083 0.226 1.472 3.859 8.927 1.031 10.876-0.95 0.939-0.953 1.509-1.877 1.752-3.331 0.285-1.705-0.966-2.772-1.916-3.212-4.816-2.23-11.474 0.69-15.116 3.667-1.58 1.292-3.557 3.345-2.65 5.498 0.985 2.337 4.001 3.535 5.965 4.964-1.589 0.79-3.577 1.606-4.606 3.086-0.589 0.849-0.798 1.753-0.359 2.718 0.777 1.704 3.603 0.966 4.795 0.214 1.092-0.688 1.827-1.611 2.145-2.796 0.275-1.027 0.219-2.093-0.238-3.060l1.767-0.894c-0.476 1.426-0.686 3.214 0.302 4.503 0.396 0.515 1.423 0.536 1.843 0.019 0.545-0.676 0.906-1.524 1.267-2.3-0.042 0.579-0.115 1.236 0.085 1.741 0.229 0.579 0.75 0.698 1.285 0.33 1.639-1.125 2.682-4.244 3.49-6.061 0.22 0.793 0.462 1.517 0.863 2.248 0.099 0.179 0.087 0.295-0.049 0.445-0.599 0.66-2.029 1.76-2.168 2.652-0.032 0.208 0.106 0.408 0.352 0.455 0.962 0.192 2.030-0.156 2.811-0.685 0.815-0.552 1.078-1.303 0.881-2.195-0.283-1.284 0.68-2.718 1.595-3.772 0.168 0.798 0.421 1.566 0.874 2.263-0.808 0.71-2.014 1.716-1.841 2.901 0.061 0.424 0.441 0.699 0.897 0.602 0.976-0.205 1.818-0.625 2.433-1.369 0.558-0.671 0.358-1.403 0.115-2.141 1.476-0.421 2.968-0.505 4.44-0.002 0.711 0.242 1.283 0.649 1.622 1.287 0.416 0.782 0.182 1.502-0.621 2.015-0.203 0.13-0.344 0.237-0.275 0.293s0.303 0.131 0.821-0.195c0.518-0.326 0.835-0.765 0.916-1.343 0.008-0.070 0.012-0.151 0.012-0.232 0-0.087-0.005-0.173-0.014-0.257l0.001 0.010zM6.981 23.439c-0.084 1.031-0.596 1.866-1.432 2.541-0.471 0.381-1.057 0.691-1.639 0.747s-1.035-0.090-1.074-0.694c-0.109-1.699 2.529-3.364 3.995-3.865 0.125 0.424 0.186 0.845 0.15 1.272l0.001-0.002zM13.354 18.961c-0.241 1.379-0.917 3.854-1.997 4.842-0.146 0.132-0.285 0.125-0.359-0.048-0.639-1.487 0.227-4.554 2.045-5.027 0.214-0.055 0.346 0.036 0.312 0.233zM17.7 24.015c0.521-0.554 1.040-1.107 1.562-1.664 0.064 0.619-1.086 1.852-1.562 1.664zM22.689 22.921c-0.145 0.079-0.471 0.155-0.484 0.052-0.092-0.747 0.73-1.538 1.24-1.908 0.275 0.701-0.050 1.473-0.756 1.856z"></path>
</symbol>
<symbol id="icon-sql" viewBox="0 0 32 32">
<title>sql</title>
<path fill="#fff" style="fill: var(--color3, #fff)" d="M13.545 0.751l-0.001-0.001c0.048 0.006 0.057 0.026 0.143 0.337 0.145 0.524 0.407 1.245 0.679 1.872 0.352 0.81 0.956 2.007 1.505 2.974l0.099 0.178c1.003 0.156 2.233 0.365 2.795 0.477 2.982 0.593 5.343 1.384 7.161 2.402 1.325 0.742 2.406 1.644 3.299 2.748 0.306 0.378 0.559 0.736 0.93 1.314l0.067 0.102-0.426 0.064c-2.735 0.42-6.862 1.425-10.597 2.535 0.003 0.034 0.010 0.078 0.018 0.125 0.118 0.667 0.189 1.346 0.232 2.18 0.026 0.512 0.014 2.022-0.021 2.474-0.123 1.615-0.31 2.976-0.553 3.997-0.402 1.686-1.148 3.661-2.179 5.767-0.302 0.619-0.565 1.115-0.602 1.14-0.020 0.014-0.473 0.013-0.813 0-1.678-0.064-4.724-0.497-6.3-0.895-0.945-0.239-2.208-0.66-2.955-0.989-1.465-0.645-2.724-1.591-3.357-2.523-0.495-0.729-0.622-1.517-0.365-2.297 0.143-0.434 0.475-0.997 0.9-1.526 0.286-0.355 0.843-0.909 1.22-1.209 0.018-0.015 0.040-0.033 0.059-0.048l-0.038 0.013c3.147-2.588 5.185-4.912 6.152-7.022 0.539-1.177 0.761-2.189 0.732-3.341-0.047-1.795-0.545-3.096-1.689-4.417-0.253-0.292-2.318-2.305-2.318-2.305-0.197-0.19-0.374-0.369-0.433-0.518-0.022-0.052-0.036-0.112-0.040-0.175l-0-0.002-0.008-0.008c0-0.038 0.005-0.075 0.013-0.109 0.004-0.018 0.008-0.034 0.013-0.048 0.001-0.001 0.002-0.003 0.003-0.005l0-0c0.012-0.035 0.025-0.056 0.025-0.056 0.001 0.003 0.002 0.005 0.003 0.008 0.096-0.148 0.37-0.414 0.594-0.571 0.688-0.483 1.805-1.044 3.241-1.627 1.060-0.43 2.711-1.024 2.813-1.012v-0.002zM13.464 0.988c-0.126 0.023-1.873 0.75-2.515 1.048-0.5 0.232-1.628 0.825-1.609 0.844 0.003 0.004 0.212 0.035 0.459 0.069 1.537 0.213 3.66 0.577 4.135 0.709 0.204 0.057 0.201 0.087 0.031-0.423-0.228-0.678-0.373-1.31-0.451-1.959-0.019-0.154-0.038-0.284-0.041-0.288-0.001-0.001-0.003-0.001-0.008 0l-0.001 0.001zM8.986 3.069h-0.001l0.239 0.227c0.247 0.232 0.89 0.844 1.709 1.637l0.441 0.428c0.151 0.026 0.303 0.053 0.454 0.079 0.047-0.021 0.154-0.081 0.272-0.156 0.502-0.314 1.228-0.717 1.887-1.048 0.164-0.082 0.296-0.152 0.291-0.156s-0.131-0.015-0.285-0.028c-1.367-0.114-3.841-0.588-4.828-0.923l-0.18-0.061zM8.803 3.214l-0.061 0.041c-0.671 0.473-1.065 0.936-1.069 1.25v0.051c0.102 0.037 0.15 0.056 0.197 0.075l-0.052-0.019c0.036 0.012 0.072 0.026 0.109 0.038 0.010 0.003 0.019 0.004 0.028 0.008 0.062 0.020 0.125 0.038 0.189 0.056 0.001 0.001 0.003 0.002 0.005 0.003 0.111 0.032 0.223 0.064 0.332 0.092 0.066 0.017 0.138 0.034 0.219 0.053 0.072 0.017 0.135 0.032 0.196 0.046 0.020 0.005 0.035 0.008 0.056 0.013 0.030 0.007 0.068 0.015 0.094 0.021 0.382 0.083 0.877 0.172 1.342 0.252-0.004-0.012-0.058-0.084-0.133-0.174-0.080-0.096-0.441-0.54-0.801-0.989l-0.652-0.817zM14.368 4.327c-0.006-0.001-0.016 0.003-0.023 0.010-0.018 0.016-0.117 0.098-0.221 0.186-0.438 0.369-0.93 0.71-1.418 0.982-0.056 0.031-0.098 0.058-0.102 0.066 0.788 0.13 1.646 0.27 2.655 0.428-0.001-0.007-0.010-0.018-0.021-0.033-0.119-0.182-0.614-1.124-0.773-1.471-0.058-0.127-0.077-0.167-0.096-0.168v0.001zM8.087 5.114c0 0.003 0.1 0.089 0.224 0.186 0.994 0.782 1.854 1.752 2.397 2.706 0.058 0.102 0.111 0.182 0.115 0.178 0.006-0.004-0.041-0.186-0.102-0.406-0.16-0.575-0.63-2.072-0.661-2.107-0.003-0.003-0.233-0.066-0.512-0.138-0.413-0.1-0.619-0.156-0.824-0.214l0.209 0.051c-0.268-0.075-0.497-0.145-0.671-0.204-0.095-0.032-0.173-0.056-0.176-0.053v0.001zM10.375 5.747c-0.004 0-0.005 0.001-0.005 0.003 0 0.008 0.041 0.104 0.092 0.212 0.313 0.672 0.663 1.628 0.831 2.275 0.025 0.096 0.050 0.176 0.053 0.176s0.117-0.11 0.252-0.245c0.338-0.336 0.801-0.706 1.316-1.051 0.207-0.138 0.824-0.507 0.977-0.584 0.069-0.035 0.126-0.071 0.126-0.079s-0.124-0.035-0.276-0.061c-0.91-0.153-2.324-0.427-3.117-0.602-0.122-0.027-0.226-0.044-0.25-0.043l0.001-0.001zM14.402 6.512c-0.044-0.015-1.316 0.973-1.787 1.39-0.247 0.218-0.822 0.795-0.822 0.824 0 0.010 0.323 0.105 0.718 0.214 0.692 0.192 1.501 0.43 1.996 0.589l0.239 0.077 0.015-0.048c0.008-0.026 0.021-0.206 0.028-0.401 0.026-0.698-0.054-1.454-0.224-2.127-0.089-0.351-0.137-0.509-0.163-0.518v0.001zM14.722 6.558c-0.003 0.004 0.024 0.075 0.059 0.156 0.323 0.752 0.5 1.643 0.5 2.525 0 0.163 0.004 0.296 0.008 0.296s0.2-0.132 0.438-0.29c0.906-0.605 1.816-1.098 3.046-1.653 0.311-0.14 0.407-0.195 0.38-0.207-0.056-0.024-0.994-0.218-1.64-0.342-0.867-0.166-2.775-0.498-2.79-0.485h-0.001zM19.659 7.534c-0.018-0.018-1.037 0.552-1.671 0.931-0.791 0.475-2.284 1.463-2.254 1.492 0.007 0.008 0.169 0.076 0.357 0.153 0.672 0.277 1.284 0.577 1.824 0.892 0.144 0.084 0.268 0.149 0.278 0.146s0.096-0.143 0.194-0.314c0.552-0.966 1.002-1.994 1.171-2.686 0.054-0.222 0.117-0.6 0.103-0.615l-0.001 0.001zM20.011 7.59c-0.012 0-0.026 0.070-0.034 0.155-0.083 0.938-0.405 2.041-0.9 3.094-0.061 0.129-0.103 0.237-0.094 0.237s0.126-0.047 0.263-0.102c1.649-0.669 3.361-1.199 5.359-1.658l0.237-0.056-0.339-0.153c-0.816-0.371-2.075-0.83-3.165-1.156-0.437-0.13-1.283-0.362-1.326-0.362zM11.595 9.524c-0.004 0.004 0.007 0.115 0.026 0.244 0.147 1.020 0.169 2.022 0.064 2.803-0.006 0.036-0.001 0.066 0.008 0.066s0.187-0.163 0.395-0.365c0.702-0.679 1.288-1.21 1.895-1.719 0.151-0.126 0.275-0.235 0.275-0.239 0-0.029-1.124-0.405-1.653-0.553-0.351-0.099-0.996-0.251-1.009-0.237h-0.001zM25.166 9.537c-0.008-0.009-0.611 0.165-1.176 0.339-1.072 0.329-2.504 0.839-3.553 1.265-0.602 0.245-1.391 0.584-1.39 0.597 0 0.006 0.043 0.041 0.094 0.079s0.207 0.166 0.345 0.28c0.739 0.615 1.358 1.299 1.88 2.079 0.068 0.102 0.128 0.186 0.132 0.186s0.16-0.192 0.345-0.426c1.21-1.559 1.609-2.059 2.009-2.559l-0.79 1.021c0.926-1.164 1.332-1.693 1.612-2.094 0.192-0.275 0.502-0.758 0.493-0.767h-0.001zM25.52 9.631c-0.005 0.012-0.101 0.21-0.214 0.439-0.76 1.534-1.404 2.391-2.818 3.751-0.228 0.219-0.407 0.401-0.398 0.401s0.15-0.035 0.314-0.074c2.408-0.579 4.911-0.995 6.868-1.142 0.254-0.020 0.462-0.034 0.465-0.036 0.008-0.005-0.598-0.635-0.844-0.878-0.871-0.855-1.978-1.687-3.106-2.333-0.135-0.077-0.248-0.13-0.265-0.127l-0.001-0.001zM15.178 10.692c-0.015-0.004-0.036 0.043-0.054 0.122-0.193 0.889-0.527 1.799-0.943 2.561-0.124 0.228-0.131 0.245-0.112 0.245 0.006 0 0.194-0.111 0.416-0.247 0.781-0.477 1.527-0.89 2.4-1.327 0.275-0.138 0.499-0.254 0.495-0.258-0.031-0.030-0.662-0.365-1.078-0.574-0.456-0.228-1.057-0.508-1.123-0.523v0.001zM14.571 10.799c-0.012-0.012-0.935 0.726-1.372 1.097-0.612 0.517-1.406 1.239-1.406 1.277 0 0.009 0.101 0.066 0.225 0.13 0.315 0.162 0.562 0.347 0.865 0.64l0.263 0.25 0.115-0.186c0.063-0.104 0.171-0.295 0.245-0.426 0.309-0.557 0.632-1.298 0.822-1.887 0.099-0.307 0.257-0.882 0.245-0.895l-0.002-0.001zM18.264 12.319l-0.164 0.245c-0.81 1.211-1.894 2.454-3.122 3.583-0.479 0.441-0.453 0.418-0.425 0.418 0.013 0 0.195-0.065 0.407-0.143 1.919-0.705 3.564-1.233 5.693-1.824l0.377-0.105-0.059-0.059c-0.106-0.111-0.615-0.569-0.877-0.788-0.47-0.391-1.085-0.846-1.604-1.184l-0.226-0.145zM17.292 12.561c-0.012-0.011-0.911 0.446-1.497 0.76-0.853 0.458-2.208 1.231-2.296 1.311-0.022 0.020-0.005 0.070 0.102 0.286 0.252 0.509 0.394 1.11 0.396 1.673 0 0.107 0.008 0.175 0.021 0.171 0.010-0.004 0.208-0.232 0.441-0.508 0.558-0.659 1.369-1.672 1.824-2.277 0.38-0.507 1.021-1.405 1.010-1.416v-0.001zM11.424 13.999c-0.011 0-0.056 0.105-0.099 0.235-0.103 0.312-0.245 0.67-0.388 0.972-0.161 0.34-0.315 0.607-0.622 1.076-0.046 0.070-0.033 0.060 0.377-0.265 0.389-0.309 1.060-0.817 1.499-1.135 0.158-0.114 0.28-0.212 0.271-0.22-0.235-0.196-0.502-0.377-0.799-0.541-0.122-0.067-0.228-0.122-0.239-0.122v-0.001zM12.988 15.226c-0.003 0.001-0.007 0.001-0.010 0.003-0.011 0.007-0.097 0.112-0.194 0.23-0.903 1.105-2.102 2.211-3.494 3.221-0.176 0.128-0.319 0.235-0.319 0.24s0.184-0.085 0.413-0.199c0.228-0.115 0.58-0.281 0.778-0.373 0.709-0.324 1.758-0.762 2.898-1.203l0.635-0.247-0.010-0.092c-0.053-0.429-0.255-0.958-0.52-1.354-0.125-0.188-0.154-0.227-0.176-0.224v-0.001zM12.267 15.404c-0.018-0.018-1.592 1.049-2.28 1.545-0.255 0.184-0.287 0.215-0.462 0.441-0.264 0.344-0.499 0.62-0.804 0.951-0.483 0.527-0.522 0.572-0.492 0.554 0.016-0.010 0.143-0.089 0.281-0.176 1.1-0.698 1.988-1.414 2.884-2.328 0.359-0.365 0.892-0.969 0.873-0.987zM18.498 15.96c-1.463 0.431-2.322 0.714-3.174 1.011l0.593-0.18c0.155 0.119 1.017 0.693 1.477 0.982 0.531 0.334 1.284 0.775 1.32 0.775 0.012 0 0.013-0.124 0.005-0.316-0.034-0.8-0.156-2.005-0.222-2.272h0.001zM15.424 16.96c-0.042 0.015-0.086 0.028-0.127 0.043-0.006 0.060-0.007 0.176-0.008 0.406-0.005 0.938-0.181 2.108-0.494 3.267-0.038 0.141-0.064 0.255-0.057 0.255 0.008 0 0.198-0.081 0.424-0.182 1.293-0.575 2.349-1.141 3.196-1.717 0.398-0.269 0.377-0.24 0.204-0.316-0.556-0.244-1.857-0.965-2.816-1.566-0.161-0.101-0.257-0.16-0.321-0.191h-0.001zM14.705 17.215c-0.452 0.154-0.61 0.214-0.768 0.275l0.29-0.098c-0.717 0.27-1.402 0.536-2.060 0.804 0.030 0.103 0.163 0.422 0.252 0.597 0.208 0.41 0.493 0.826 0.855 1.245 0.211 0.246 0.847 0.863 0.865 0.842 0.008-0.009 0.057-0.156 0.107-0.326 0.212-0.715 0.345-1.343 0.425-2.022 0.030-0.256 0.051-1.127 0.033-1.314v-0.001zM11.682 18.397c-0.064 0.026-0.128 0.053-0.192 0.078-0.005 0.012-0.011 0.025-0.015 0.041-0.014 0.045-0.092 0.249-0.172 0.454-0.462 1.178-1.288 2.845-1.834 3.698-0.122 0.191-0.136 0.217-0.094 0.201 0.014-0.005 0.367-0.119 0.786-0.255 1.098-0.355 2.057-0.689 2.936-1.022 0.758-0.288 0.749-0.282 0.72-0.309-0.015-0.012-0.119-0.101-0.23-0.196-0.345-0.296-0.756-0.74-1.072-1.158-0.289-0.382-0.622-0.978-0.77-1.38-0.026-0.071-0.050-0.13-0.064-0.153l0.001-0.001zM10.716 18.808c-0.931 0.405-1.805 0.811-2.638 1.226-0.027 0.043-0.044 0.112-0.077 0.268-0.082 0.391-0.093 1.021-0.026 1.385 0.068 0.368 0.2 0.763 0.358 1.077 0.071 0.143 0.081 0.153 0.104 0.119 0.014-0.020 0.119-0.185 0.232-0.367 0.658-1.054 1.155-1.919 1.604-2.795 0.193-0.377 0.388-0.781 0.441-0.913zM18.747 19.086l-0.069 0.058c-0.094 0.083-0.52 0.392-0.804 0.582-0.758 0.506-1.631 1.016-2.544 1.489-0.23 0.119-0.42 0.221-0.425 0.227-0.019 0.018 0.634 0.42 1.086 0.668 0.682 0.374 1.44 0.697 2.137 0.913 0.157 0.049 0.289 0.089 0.291 0.087s0.026-0.152 0.053-0.334c0.16-1.036 0.272-2.457 0.273-3.494v-0.196l0.001 0.002zM7.229 20.467c-0.227 0.119-0.453 0.239-0.673 0.359-0.379 0.207-0.655 0.36-0.887 0.495-0.495 0.303-0.836 0.582-1.245 1.005-0.727 0.751-1.245 1.647-1.351 2.329-0.012 0.078-0.011 0.086 0.023 0.076 0.020-0.006 0.272-0.078 0.558-0.156 0.967-0.264 4.039-1.163 4.073-1.191 0.003-0.004-0.070-0.164-0.163-0.355-0.337-0.685-0.448-1.186-0.411-1.866 0.008-0.155 0.031-0.379 0.051-0.498 0.022-0.128 0.030-0.18 0.026-0.198l0.001 0.001zM14.469 21.757c-0.003 0.003-0.028 0.082-0.058 0.176-0.298 0.919-0.88 2.241-1.463 3.331-0.105 0.196-0.191 0.362-0.191 0.368 0 0.004 0.049-0.013 0.107-0.036s0.352-0.133 0.655-0.247c2.076-0.778 4.106-1.624 4.724-1.966l0.148-0.082-0.108-0.026c-1.181-0.27-2.567-0.808-3.56-1.383-0.137-0.079-0.249-0.139-0.252-0.135h-0.001zM13.729 22c-0.003-0.004-0.153 0.057-0.333 0.135-1.279 0.551-2.562 0.995-4.079 1.41l-0.426 0.117 0.082 0.103c0.573 0.722 1.445 1.465 2.431 2.068 0.166 0.101 0.306 0.183 0.312 0.183s0.151-0.248 0.323-0.553c0.677-1.2 1.207-2.27 1.612-3.249 0.047-0.115 0.082-0.211 0.079-0.214l-0.001 0.001zM18.323 23.602c-0.015-0.003-0.083 0.030-0.173 0.083-0.75 0.451-2.941 1.503-5.058 2.426-0.35 0.153-0.631 0.283-0.622 0.292 0.025 0.024 0.495 0.231 0.818 0.362 1.159 0.465 2.394 0.813 3.775 1.063 0.028 0.006 0.055 0.012 0.061 0.013s0.101-0.288 0.215-0.643c0.255-0.804 0.391-1.261 0.556-1.842 0.195-0.692 0.431-1.646 0.431-1.749 0-0.002-0.001-0.004-0.003-0.005zM7.723 23.963c-0.003-0.002-0.224 0.051-0.492 0.115s-1.016 0.24-1.663 0.39c-1.164 0.27-2.404 0.561-2.471 0.581-0.047 0.014-0.047 0.127 0.003 0.349 0.106 0.482 0.379 1.005 0.778 1.503 0.194 0.242 0.62 0.674 0.865 0.879l0.209 0.176 0.194-0.301c0.186-0.288 0.324-0.492 0.466-0.693l-0.045 0.068c0.125-0.176 0.462-0.648 0.749-1.051 0.826-1.156 1.419-2.006 1.407-2.017zM8.318 24.193h0.001l-0.82 0.987c-1.197 1.442-1.745 2.136-2.18 2.768l-0.135 0.191 0.087 0.061c0.047 0.034 0.089 0.060 0.092 0.061s0.611-0.209 1.351-0.467c1.312-0.457 4.151-1.465 4.185-1.487 0.010-0.006-0.103-0.081-0.25-0.166-0.831-0.48-1.512-1.037-2.181-1.782l-0.15-0.166zM12.029 26.843c-0.003 0.004-0.132 0.197-0.283 0.428-0.554 0.845-1.218 1.738-1.887 2.538-0.136 0.162-0.247 0.305-0.247 0.314 0 0.021 0.157 0.060 0.202 0.051 0.016-0.003 0.332-0.093 0.701-0.199 1.989-0.572 4.43-1.292 5.228-1.543 0.504-0.158 1.185-0.388 1.217-0.408 0.016-0.010-0.036-0.022-0.14-0.031-0.676-0.057-1.815-0.254-2.604-0.451-0.643-0.161-1.119-0.309-1.724-0.536-0.251-0.094-0.459-0.168-0.462-0.164h-0.001zM11.208 26.865c-0.003-0.003-0.119 0.031-0.258 0.074-0.739 0.23-1.865 0.55-3.902 1.105-0.766 0.209-1.403 0.382-1.413 0.385-0.037 0.011 0.434 0.307 0.804 0.507 0.296 0.16 0.696 0.344 1.081 0.498 0.31 0.123 1.483 0.538 1.65 0.584l0.072 0.018 0.135-0.237c0.075-0.13 0.213-0.359 0.308-0.51s0.372-0.589 0.618-0.974c0.579-0.913 0.911-1.442 0.905-1.449v0.001zM16.993 28.223l0.001 0.001c-0.031 0.006-0.154 0.058-0.298 0.125-0.915 0.425-1.819 0.776-2.734 1.056-0.726 0.221-1.44 0.402-2.928 0.737l-0.697 0.156 0.114 0.026c0.489 0.111 2.43 0.451 3.587 0.627 0.661 0.101 1.756 0.252 1.834 0.255 0.032 0.001 0.053-0.032 0.115-0.18 0.276-0.663 1.031-2.752 1.012-2.8-0.001-0.001-0.004-0.001-0.008 0h0.001z"></path>
</symbol>
<symbol id="icon-swift" viewBox="0 0 32 32">
<title>swift</title>
<path fill="#fff" style="fill: var(--color3, #fff)" d="M24.748 5.024c-2.965-2.392-4.255-3.742-8.668-4.436-4.874-0.234-8.314 3.961-10.705 6.473-2.392 2.965-3.742 4.255-4.436 8.668-0.234 4.874 3.961 8.314 6.473 10.705 2.965 2.392 4.255 3.742 8.668 4.436 4.874 0.234 8.314-3.961 10.705-6.473 2.392-2.965 3.742-4.255 4.436-8.668 0.234-4.874-3.961-8.314-6.473-10.705zM24.258 23.591s-1.011-1.682-2.686-1.682c-1.622 0-2.58 1.682-5.854 1.682-7.28 0-10.728-6.081-10.728-6.081 6.556 4.323 11.037 1.26 11.037 1.26-2.957-1.713-9.242-9.913-9.242-9.913 5.477 4.662 7.838 5.885 7.838 5.885-1.418-1.162-5.379-6.865-5.379-6.865 3.169 3.206 9.468 7.673 9.468 7.673 1.803-4.934-1.705-9.355-1.705-9.355 8.57 5.832 5.794 12.244 5.794 12.244s2.437 2.746 1.456 5.153z"></path>
</symbol>
</defs>
</svg>
